<?xml version="1.0" encoding="UTF-8"?>
<svg version="1.1" xmlns="http://www.w3.org/2000/svg" width="100" height="100">
<path d="M0 0 C4.29 0 8.58 0 13 0 C13 0.99 13 1.98 13 3 C13.99 3 14.98 3 16 3 C16 3.99 16 4.98 16 6 C22.27 6 28.54 6 35 6 C35 5.01 35 4.02 35 3 C35.99 3 36.98 3 38 3 C38 2.01 38 1.02 38 0 C40.97 0 43.94 0 47 0 C47 2.97 47 5.94 47 9 C46.01 9 45.02 9 44 9 C44 10.32 44 11.64 44 13 C44.99 13 45.98 13 47 13 C47 14.98 47 16.96 47 19 C48.98 19 50.96 19 53 19 C53 18.01 53 17.02 53 16 C55.31 16 57.62 16 60 16 C60 16.99 60 17.98 60 19 C58.68 19 57.36 19 56 19 C56 19.99 56 20.98 56 22 C55.01 22 54.02 22 53 22 C53 22.99 53 23.98 53 25 C53.99 25 54.98 25 56 25 C56 25.99 56 26.98 56 28 C55.01 28 54.02 28 53 28 C53 28.99 53 29.98 53 31 C52.01 31 51.02 31 50 31 C50 31.99 50 32.98 50 34 C48.02 34 46.04 34 44 34 C44 35.32 44 36.64 44 38 C41.03 38 38.06 38 35 38 C35 38.99 35 39.98 35 41 C35.99 41 36.98 41 38 41 C38 42.98 38 44.96 38 47 C37.01 47 36.02 47 35 47 C35 47.99 35 48.98 35 50 C35.99 50 36.98 50 38 50 C38 55.28 38 60.56 38 66 C38.99 66 39.98 66 41 66 C41 68.97 41 71.94 41 75 C41.99 75 42.98 75 44 75 C44 76.98 44 78.96 44 81 C41.03 81 38.06 81 35 81 C35 80.01 35 79.02 35 78 C29.72 78 24.44 78 19 78 C19 78.99 19 79.98 19 81 C16.03 81 13.06 81 10 81 C10 80.01 10 79.02 10 78 C-0.56 78 -11.12 78 -22 78 C-22 76.02 -22 74.04 -22 72 C-16.72 72 -11.44 72 -6 72 C-6 59.46 -6 46.92 -6 34 C-5.01 34 -4.02 34 -3 34 C-3 31.03 -3 28.06 -3 25 C-2.01 25 -1.02 25 0 25 C0 24.01 0 23.02 0 22 C0.99 22 1.98 22 3 22 C3 21.01 3 20.02 3 19 C3.99 19 4.98 19 6 19 C6 18.01 6 17.02 6 16 C5.01 16 4.02 16 3 16 C3 15.01 3 14.02 3 13 C2.01 13 1.02 13 0 13 C0 8.71 0 4.42 0 0 Z " fill="#6D6D6D" transform="translate(28,0)"/>
<path d="M0 0 C0.99 0 1.98 0 3 0 C3 13.53 3 27.06 3 41 C16.53 41 30.06 41 44 41 C44 38.03 44 35.06 44 32 C44.99 32 45.98 32 47 32 C47 34.97 47 37.94 47 41 C47.99 41 48.98 41 50 41 C50 42.98 50 44.96 50 47 C47.03 47 44.06 47 41 47 C41 46.01 41 45.02 41 44 C35.72 44 30.44 44 25 44 C25 44.99 25 45.98 25 47 C22.03 47 19.06 47 16 47 C16 46.01 16 45.02 16 44 C5.44 44 -5.12 44 -16 44 C-16 42.02 -16 40.04 -16 38 C-10.72 38 -5.44 38 0 38 C0 25.46 0 12.92 0 0 Z " fill="#000000" transform="translate(22,34)"/>
<path d="M0 0 C4.29 0 8.58 0 13 0 C13 0.99 13 1.98 13 3 C13.99 3 14.98 3 16 3 C16 3.99 16 4.98 16 6 C22.27 6 28.54 6 35 6 C35 5.01 35 4.02 35 3 C35.99 3 36.98 3 38 3 C38 2.01 38 1.02 38 0 C40.97 0 43.94 0 47 0 C47 2.97 47 5.94 47 9 C46.01 9 45.02 9 44 9 C44 10.32 44 11.64 44 13 C43.01 13 42.02 13 41 13 C41 11.68 41 10.36 41 9 C31.76 9 22.52 9 13 9 C13 11.31 13 13.62 13 16 C12.01 16 11.02 16 10 16 C10 16.99 10 17.98 10 19 C8.68 19 7.36 19 6 19 C6 18.01 6 17.02 6 16 C5.01 16 4.02 16 3 16 C3 15.01 3 14.02 3 13 C2.01 13 1.02 13 0 13 C0 8.71 0 4.42 0 0 Z " fill="#000000" transform="translate(28,0)"/>
<path d="M0 0 C0.99 0 1.98 0 3 0 C3 2.97 3 5.94 3 9 C3.99 9 4.98 9 6 9 C6 10.98 6 12.96 6 15 C3.03 15 0.06 15 -3 15 C-3 14.01 -3 13.02 -3 12 C-8.28 12 -13.56 12 -19 12 C-19 12.99 -19 13.98 -19 15 C-21.97 15 -24.94 15 -28 15 C-28 14.01 -28 13.02 -28 12 C-32.29 12 -36.58 12 -41 12 C-41 11.01 -41 10.02 -41 9 C-27.47 9 -13.94 9 0 9 C0 6.03 0 3.06 0 0 Z " fill="#000000" transform="translate(66,66)"/>
<path d="M0 0 C5.28 0 10.56 0 16 0 C16 0.99 16 1.98 16 3 C16.99 3 17.98 3 19 3 C19 3.99 19 4.98 19 6 C12.73 6 6.46 6 0 6 C0 4.02 0 2.04 0 0 Z " fill="#F700FB" transform="translate(6,72)"/>
<path d="M0 0 C1.32 0 2.64 0 4 0 C4 0.99 4 1.98 4 3 C4.99 3 5.98 3 7 3 C7 4.98 7 6.96 7 9 C6.01 9 5.02 9 4 9 C4 9.99 4 10.98 4 12 C2.68 12 1.36 12 0 12 C0 8.04 0 4.08 0 0 Z " fill="#000000" transform="translate(59,38)"/>
<path d="M0 0 C0.99 0 1.98 0 3 0 C3 5.28 3 10.56 3 16 C2.01 16 1.02 16 0 16 C0 10.72 0 5.44 0 0 Z " fill="#000000" transform="translate(63,50)"/>
<path d="M0 0 C2.31 0 4.62 0 7 0 C7 0.99 7 1.98 7 3 C5.68 3 4.36 3 3 3 C3 3.99 3 4.98 3 6 C0.03 6 -2.94 6 -6 6 C-6 5.01 -6 4.02 -6 3 C-4.02 3 -2.04 3 0 3 C0 2.01 0 1.02 0 0 Z " fill="#000000" transform="translate(81,16)"/>
<path d="M0 0 C1.98 0 3.96 0 6 0 C6 0.99 6 1.98 6 3 C6.99 3 7.98 3 9 3 C9 3.99 9 4.98 9 6 C6.03 6 3.06 6 0 6 C0 4.02 0 2.04 0 0 Z " fill="#C500C8" transform="translate(75,22)"/>
<path d="M0 0 C1.98 0 3.96 0 6 0 C6 1.98 6 3.96 6 6 C4.02 6 2.04 6 0 6 C0 4.02 0 2.04 0 0 Z " fill="#000000" transform="translate(47,41)"/>
<path d="M0 0 C2.97 0 5.94 0 9 0 C9 1.32 9 2.64 9 4 C6.03 4 3.06 4 0 4 C0 2.68 0 1.36 0 0 Z " fill="#000000" transform="translate(63,34)"/>
<path d="M0 0 C1.98 0 3.96 0 6 0 C6 0.99 6 1.98 6 3 C5.01 3 4.02 3 3 3 C3 3.99 3 4.98 3 6 C1.02 6 -0.96 6 -3 6 C-3 5.01 -3 4.02 -3 3 C-2.01 3 -1.02 3 0 3 C0 2.01 0 1.02 0 0 Z " fill="#000000" transform="translate(75,28)"/>
<path d="M0 0 C1.98 0 3.96 0 6 0 C6 1.98 6 3.96 6 6 C4.02 6 2.04 6 0 6 C0 4.02 0 2.04 0 0 Z " fill="#FF0000" transform="translate(63,13)"/>
<path d="M0 0 C1.98 0 3.96 0 6 0 C6 1.98 6 3.96 6 6 C4.02 6 2.04 6 0 6 C0 4.02 0 2.04 0 0 Z " fill="#FF0000" transform="translate(47,13)"/>
<path d="M0 0 C2.97 0 5.94 0 9 0 C9 0.99 9 1.98 9 3 C6.03 3 3.06 3 0 3 C0 2.01 0 1.02 0 0 Z " fill="#6F6F6F" transform="translate(63,31)"/>
<path d="M0 0 C2.97 0 5.94 0 9 0 C9 0.99 9 1.98 9 3 C6.03 3 3.06 3 0 3 C0 2.01 0 1.02 0 0 Z " fill="#000000" transform="translate(63,28)"/>
<path d="M0 0 C0.99 0 1.98 0 3 0 C3 2.97 3 5.94 3 9 C2.01 9 1.02 9 0 9 C0 6.03 0 3.06 0 0 Z " fill="#000000" transform="translate(25,25)"/>
<path d="M0 0 C2.97 0 5.94 0 9 0 C9 0.99 9 1.98 9 3 C6.03 3 3.06 3 0 3 C0 2.01 0 1.02 0 0 Z " fill="#000000" transform="translate(63,22)"/>
<path d="M0 0 C0.99 0 1.98 0 3 0 C3 1.98 3 3.96 3 6 C2.01 6 1.02 6 0 6 C0 4.02 0 2.04 0 0 Z " fill="#000000" transform="translate(72,13)"/>
<path d="M0 0 C1.32 0 2.64 0 4 0 C4 0.99 4 1.98 4 3 C2.68 3 1.36 3 0 3 C0 2.01 0 1.02 0 0 Z " fill="#000000" transform="translate(84,22)"/>
</svg>
